<svg xmlns="http://www.w3.org/2000/svg" width="160" height="207" fill="none" viewBox="0 0 160 207"><circle cx="80" cy="127" r="80" fill="url(#paint0_linear_5190_7141)"/><path fill="#DEE5EA" d="M24.762 184.869v-52.155H131.43v55.567C117.523 199.964 99.583 207 80 207c-21.422 0-40.878-8.42-55.238-22.131Z"/><path fill="#C0CAD7" d="M24.762 132.714H131.43l-15.238-11.428h-76.19l-15.239 11.428Z"/><path fill="#A7AEB8" d="M24.762 132.714H40v-11.428l-15.238 11.428ZM131.429 132.714h-15.238v-11.428l15.238 11.428Z"/><circle cx="66.667" cy="142.238" r="1.905" fill="#A7AEB8"/><circle cx="91.429" cy="142.238" r="1.905" fill="#A7AEB8"/><path stroke="#fff" stroke-linecap="round" stroke-linejoin="round" d="M66.667 142.238c.635-6.032 4.19-14.286 13.333-14.286s11.429 8.254 11.429 14.286"/><path stroke="#8498B0" stroke-dasharray="7.91 7.91" stroke-width="2" d="M68.058 127.768c-5.995-29.603 26.011-73.649 40.39-50.136 15.497 25.342-93.087 31.278-74.243-17.154C49 22.448 84.49 38.888 109.33 46.415c0 0 35.604 3.671 20.839-25.418" opacity=".3"/><path fill="#FFA236" fill-rule="evenodd" d="M126.533 13.265c4.071.356 6.785-.492 6.918-2.003.116-1.324-2.394-2.816-6.464-3.172-4.071-.355-8.367 1.195-8.437 1.987-.055.634 3.913 2.832 7.983 3.188Z" clip-rule="evenodd" opacity=".5"/><path fill="#FFA236" fill-rule="evenodd" d="M121.486 25.084c-1.458.336-3.442-1.904-4.361-5.88-.919-3.978.254-8.499 1.126-8.7.698-.16 3.654 3.408 4.573 7.385.919 3.977.325 6.811-1.338 7.195Z" clip-rule="evenodd" opacity=".5"/><path fill="#FFA236" fill-rule="evenodd" d="M120.266 17.588c-2.621-2.3-3.718-6.452-2.557-7.787 1.162-1.335 4.772-.612 7.576 1.823 2.633 2.287 3.277 7.224 2.833 7.748-.209.247-5.208.538-7.852-1.784Z" clip-rule="evenodd"/><path fill="#24272C" fill-rule="evenodd" d="M119.525 16.849c.009.011-1.488-1.707-1.452-2.237.035-.53 4.366-4.81 4.366-4.81s.996.402 2.163 1.267c0 0-5.085 5.769-5.077 5.78Zm4.045 2.278c-.77-.128-2.102-.506-2.291-.769-.189-.262 4.567-5.357 4.923-5.688 1.006 1.392 1.156 2.158 1.156 2.285 0 .128-3.788 4.172-3.788 4.172Z" clip-rule="evenodd" opacity=".681"/><path fill="#FFA236" fill-rule="evenodd" d="M113.097 9.082a3.77 3.77 0 0 1 .933-2.226 3.862 3.862 0 0 1 1.193-.926l-.522-1.817c-.046-.16.003-.434.179-.533.386-.152.583.137.629.298l.503 1.766c.992-.234 2.035-.03 2.815.647 1.355 1.176 1.403 3.336.108 4.825-1.295 1.488-3.443 1.741-4.798.565a3.042 3.042 0 0 1-.99-1.748l-1.802-.231c-.167-.021-.398-.175-.42-.376.014-.415.357-.48.524-.46l1.648.216Z" clip-rule="evenodd"/><defs><linearGradient id="paint0_linear_5190_7141" x1="0" x2="168.719" y1="47" y2="64.036" gradientUnits="userSpaceOnUse"><stop stop-color="#F4F4F4"/><stop offset="1" stop-color="#E9EFEE"/></linearGradient></defs></svg>