<svg xmlns="http://www.w3.org/2000/svg" width="191" height="129" fill="none" viewBox="0 0 191 129"><path fill="#E7EDF2" fill-rule="evenodd" d="M157.574 123H50.231S-12.434 77.773 4.393 54C21.22 30.227 36.886 32.547 46.169 34.866c34.814 12.756 29.592-6.958 48.16-20.294 18.567-13.336 108.503 11.017 95.157 67.26-8.123 35.37-31.912 41.168-31.912 41.168Z" clip-rule="evenodd" opacity=".5"/><path fill="#24272C" fill-opacity=".97" d="M137.155 12.556c0-.01 0-.023.002-.034a.288.288 0 0 1 .319-.25c9.143 1.084 17.925 4.176 26.098 9.194 8.016 4.92 15.057 11.442 20.928 19.386a.286.286 0 0 1-.062.4.29.29 0 0 1-.404-.06c-11.744-15.898-28.74-26.23-46.627-28.352a.288.288 0 0 1-.254-.284Z"/><path fill="#24272C" fill-opacity=".97" d="M124.566 16.074c0-.146.112-.271.261-.285 9.299-.878 18.474.502 27.274 4.104 8.497 3.48 16.18 8.827 22.832 15.896a.285.285 0 0 1-.013.405.29.29 0 0 1-.408-.013c-13.462-14.305-31.552-21.53-49.63-19.82a.288.288 0 0 1-.314-.258l-.002-.029ZM175.643 40.078a.28.28 0 0 1 .065-.18l1.635-2.004a.29.29 0 0 1 .501.096l.761 2.51a.283.283 0 0 1-.059.272.29.29 0 0 1-.263.093c-1.21-.202-2.409-.508-2.422-.51a.288.288 0 0 1-.201-.189.207.207 0 0 1-.017-.088Zm1.804-1.404-1.005 1.233c.358.085.897.205 1.475.313l-.47-1.546Z"/><path fill="#000" d="M105.944 3.417a.338.338 0 0 1-.07-.006l-1.764-.359a.35.35 0 0 1 .14-.685l1.764.358a.35.35 0 0 1-.07.692ZM110.056 4.252a.322.322 0 0 1-.069-.007l-1.765-.358a.35.35 0 0 1 .14-.686l1.764.359a.35.35 0 0 1-.07.692ZM106.522 6.61a.35.35 0 0 1-.341-.419l.356-1.775a.348.348 0 1 1 .683.139l-.356 1.774a.35.35 0 0 1-.342.282ZM107.354 2.475a.35.35 0 0 1-.342-.419l.356-1.775a.349.349 0 1 1 .683.138l-.356 1.774a.35.35 0 0 1-.341.282Z"/><path fill="#24272C" d="M5.145 80.39c.003 0 .004-.002.006-.003a.35.35 0 0 1 .474.139c5.781 10.5 13.61 17.526 23.265 20.884a.35.35 0 0 1 .217.444.345.345 0 0 1-.443.215c-9.825-3.415-17.782-10.551-23.65-21.208a.35.35 0 0 1 .13-.47Z"/><path fill="#24272C" d="M8.394 78.879a.35.35 0 0 1 .475.125c6.156 10.284 14.23 17.023 23.999 20.029.184.057.29.252.233.437a.347.347 0 0 1-.435.232C22.726 96.643 14.518 89.8 8.271 79.36a.35.35 0 0 1 .123-.482Z"/><path fill="#E1E5E7" d="M92.831 126c38.66 0 70-1.343 70-3s-31.34-3-70-3-70 1.343-70 3 31.34 3 70 3Z"/><path fill="#979797" d="M21.194 123.296c4.066 0 7.362-.557 7.362-1.244 0-.687-3.296-1.244-7.363-1.244-4.066 0-7.362.557-7.362 1.244 0 .687 3.296 1.244 7.363 1.244Z" opacity=".1"/><path fill="#595959" d="M16.251 116.269s4.197-.128 5.468-1.031c1.271-.902 6.46-1.977 6.774-.53.315 1.446 6.31 7.189 1.57 7.227-4.74.038-11.015-.738-12.278-1.509-1.263-.772-1.534-4.157-1.534-4.157Z"/><path fill="#000" d="M30.142 121.432c-4.74.038-11.015-.739-12.278-1.51-.962-.585-1.345-2.688-1.474-3.658h-.139s.273 3.388 1.528 4.156c1.255.768 7.538 1.548 12.278 1.509 1.367 0 1.84-.497 1.816-1.219-.192.44-.714.714-1.731.722Z" opacity=".2"/><path fill="#EFB7B9" d="M120.508 108.435c-4.411 6.313-20.266 2.969-20.266 2.969l-12.287-11.5-1.654-1.557 2.774-5.893s.882.243 2.395.675c7.943 2.307 32.76 10 29.038 15.306Z"/><path fill="#000" d="M91.461 93.129c-.542 1.888-2.028 4.715-3.506 6.775l-1.654-1.557 2.774-5.893s.891.243 2.386.675ZM61.021 71.87s-2.289 4.689-.882 4.371c1.407-.317.882-4.371.882-4.371Z" opacity=".1"/><path fill="#BCBCBC" d="m62.127 81.342 33.96-5.527v32.157l-32.267-1.69-1.693-24.94Z"/><path fill="#000" d="m62.127 81.342 33.96-5.527v32.157l-32.267-1.69-1.693-24.94Z" opacity=".05"/><path fill="#BCBCBC" d="m96.087 75.815 40.725 3.048-2.253 27.984-38.472 1.125V75.815Z"/><path fill="#000" d="m96.087 75.815 40.725 3.048-2.253 27.984-38.472 1.125V75.815Z" opacity=".1"/><path fill="#BCBCBC" d="m108.608 66-12.52 9.815 40.724 3.048 6.656-10.044L108.608 66ZM49.831 70.623 80.403 66.9l15.684 8.915-33.96 5.527-12.296-10.72Z"/><path fill="#BCBCBC" d="M103.531 84.164v43.966l-15.908-1.632-6.92-.706-2.108-.22-6.915-.711-9.553-.979v-42.54l33.955 2.31 7.449.512ZM136.811 78.861v42.877l-12.75 2.448-6.201 1.191-14.329 2.752V84.164l33.28-5.303Z"/><path fill="#000" d="M136.811 78.861v42.877l-12.75 2.448-6.201 1.191-14.329 2.752V84.164l33.28-5.303Z" opacity=".05"/><path fill="#BCBCBC" d="m49.831 90.596 12.296-9.255 41.404 2.823-6.095 10.27-47.605-3.838Z"/><path fill="#fff" d="m49.831 90.596 12.296-9.255 41.404 2.823-6.095 10.27-47.605-3.838Z" opacity=".1"/><path fill="#BCBCBC" d="m136.811 78.861-33.28 5.302 10.832 9.705 35.648-5.981-13.2-9.026Z"/><path fill="#fff" d="m136.811 78.861-33.28 5.302 10.832 9.705 35.648-5.981-13.2-9.026ZM124.062 124.186l-6.201 1.191v-9.162l5.808-1.465.393 9.436ZM87.624 120.437v6.061l-6.92-.706v-5.355h6.92ZM78.595 122.347v3.224l-6.915-.71v-2.514h6.915Z" opacity=".1"/><path fill="#fff" fill-rule="evenodd" d="M130.47 62.422c-2.281 0-4.338-1.392-5.21-3.527a5.763 5.763 0 0 1 1.225-6.224 5.587 5.587 0 0 1 6.147-1.234c2.106.886 3.478 2.97 3.476 5.28-.003 3.152-2.527 5.705-5.638 5.705Zm-.001-9.995c-2.336 0-4.229 1.917-4.229 4.283 0 2.365 1.893 4.283 4.229 4.283 2.335 0 4.228-1.918 4.228-4.283a4.311 4.311 0 0 0-1.238-3.029 4.202 4.202 0 0 0-2.99-1.254Z" clip-rule="evenodd"/><circle cx="59.331" cy="46.5" r="4.5" fill="#fff"/><circle cx="86.331" cy="70.5" r="2.5" fill="#fff"/><path fill="#24272C" d="M155.032 105.492c4.067 0 7.363-.557 7.363-1.244 0-.687-3.296-1.244-7.363-1.244-4.066 0-7.362.557-7.362 1.244 0 .687 3.296 1.244 7.362 1.244ZM128.193 125.382c4.067 0 7.363-.557 7.363-1.244 0-.687-3.296-1.244-7.363-1.244-4.066 0-7.362.557-7.362 1.244 0 .687 3.296 1.244 7.362 1.244ZM165.193 124.488c4.067 0 7.363-.557 7.363-1.244 0-.687-3.296-1.244-7.363-1.244-4.066 0-7.362.557-7.362 1.244 0 .687 3.296 1.244 7.362 1.244Z" opacity=".1"/><path fill="#595959" d="M172.824 122.967c6.071 0 10.993-.833 10.993-1.86 0-1.026-4.922-1.859-10.993-1.859-6.071 0-10.993.833-10.993 1.859 0 1.027 4.922 1.86 10.993 1.86Z"/><path fill="#595959" d="M177.382 118.064a3.174 3.174 0 0 0 1.047-1.58c.137-.629-.131-1.381-.73-1.611-.673-.257-1.392.208-1.938.678-.547.471-1.168 1.009-1.881.911a2.873 2.873 0 0 0 .885-2.683 1.127 1.127 0 0 0-.246-.547c-.374-.399-1.049-.227-1.498.088-1.421 1.001-1.818 2.931-1.826 4.67-.142-.626-.022-1.279-.025-1.914-.002-.634-.18-1.367-.724-1.701a2.166 2.166 0 0 0-1.094-.273c-.64-.022-1.353.041-1.788.509-.547.579-.402 1.555.069 2.187.47.632 1.189 1.039 1.85 1.482.53.316.982.747 1.324 1.261.039.071.071.146.095.224h4.008a11.036 11.036 0 0 0 2.472-1.701Z"/></svg>