<svg width="120" height="25" viewBox="0 0 120 25" fill="none" xmlns="http://www.w3.org/2000/svg">
<g clip-path="url(#clip0_2430_13169)">
<path d="M0 24.5551V5.48733H3.87716V7.92376C4.07581 7.51306 4.32486 7.12872 4.61863 6.77967C4.97319 6.37336 5.40546 6.04202 5.88989 5.80511C6.50257 5.53275 7.16886 5.4024 7.83901 5.42377C8.82666 5.4148 9.79654 5.68665 10.6356 6.20766C11.5528 6.7815 12.2876 7.60451 12.7543 8.58053C13.3014 9.82755 13.562 11.1814 13.517 12.5424C13.5542 13.887 13.3013 15.2238 12.7755 16.4619C12.3125 17.4515 11.5777 18.2892 10.6568 18.8772C9.80382 19.422 8.80855 19.702 7.7966 19.6822C7.14879 19.708 6.5038 19.5848 5.9111 19.3221C5.42191 19.1016 4.98223 18.7845 4.61863 18.3899C4.32121 18.0391 4.06531 17.6552 3.85595 17.2458V24.661L0 24.5551ZM3.77125 12.4153C3.76811 13.1352 3.88256 13.8509 4.11018 14.5339C4.30651 15.0949 4.65058 15.5926 5.10601 15.9746C5.56339 16.318 6.12321 16.4972 6.69499 16.4831C7.2706 16.4999 7.83355 16.3122 8.28397 15.9534C8.73906 15.5755 9.07702 15.0757 9.25846 14.5127C9.49659 13.8323 9.61146 13.1148 9.59752 12.3941C9.61223 11.675 9.50472 10.9586 9.27967 10.2754C9.08525 9.71342 8.74098 9.21526 8.28397 8.83476C7.82036 8.50347 7.2648 8.3254 6.69499 8.3254C6.12518 8.3254 5.56962 8.50347 5.10601 8.83476C4.64709 9.19595 4.30142 9.68127 4.11018 10.2331C3.90904 10.9419 3.83026 11.6799 3.87716 12.4153H3.77125Z" fill="#2A1468"/>
<path d="M19.0256 19.6186C18.2103 19.6361 17.4008 19.4771 16.6527 19.1525C15.9895 18.8572 15.4238 18.3796 15.0213 17.7754C14.6026 17.0878 14.3962 16.2918 14.428 15.4873C14.4007 14.8121 14.5466 14.1411 14.8518 13.5381C15.1219 13.0319 15.5154 12.602 15.9958 12.2882C16.5069 11.9512 17.0736 11.7074 17.6696 11.5678C18.3143 11.3892 18.9737 11.2686 19.64 11.2076C20.445 11.2076 21.0806 11.0594 21.5891 10.9746C21.9613 10.9337 22.3215 10.8184 22.6484 10.6356C22.7405 10.5665 22.8153 10.477 22.8668 10.374C22.9183 10.2711 22.945 10.1575 22.945 10.0424C22.9613 9.79456 22.9222 9.5462 22.8306 9.31534C22.739 9.08448 22.5972 8.87688 22.4154 8.70764C21.9775 8.37769 21.4375 8.21265 20.89 8.24154C20.3023 8.20576 19.7198 8.37005 19.2374 8.70764C18.8472 8.98684 18.5634 9.39022 18.4323 9.85173L14.873 9.55509C15.0387 8.76975 15.4035 8.04019 15.9323 7.43644C16.5021 6.78109 17.2321 6.28472 18.051 5.99578C18.9883 5.6589 19.9788 5.4938 20.9747 5.50847C21.6883 5.51221 22.3991 5.59756 23.0934 5.76276C23.7735 5.93204 24.4187 6.21882 25.0001 6.6102C25.5387 6.99032 25.9813 7.49088 26.2925 8.07207C26.6293 8.72651 26.7968 9.45489 26.7798 10.1907V19.5551H23.1358V17.6271H23.0087C22.7884 18.0621 22.4861 18.4506 22.1187 18.7712C21.724 19.1047 21.2717 19.3632 20.784 19.534C20.2064 19.6582 19.6124 19.6867 19.0256 19.6186ZM20.1272 16.9703C20.6479 16.9736 21.1625 16.8577 21.6315 16.6314C22.04 16.4156 22.3892 16.1028 22.6484 15.7204C22.8954 15.3276 23.0208 14.8706 23.0087 14.4068V12.9237C22.8601 13.0227 22.695 13.0945 22.5213 13.1356L21.8221 13.3051L21.0594 13.4534L20.3391 13.5594C19.9313 13.612 19.5323 13.7189 19.1527 13.8771C18.8482 14.0003 18.579 14.1968 18.3688 14.4492C18.1861 14.7176 18.09 15.0355 18.0934 15.3602C18.08 15.5903 18.1256 15.8199 18.2257 16.0275C18.3258 16.2351 18.477 16.4138 18.6653 16.5467C19.0949 16.8404 19.6072 16.9888 20.1272 16.9703Z" fill="#2A1468"/>
<path d="M27.8398 5.48705V8.38959H36.1873V5.48705H27.8398ZM35.8272 16.3345H35.4246C35.2416 16.3555 35.0568 16.3555 34.8738 16.3345C34.6501 16.3802 34.4195 16.3802 34.1958 16.3345C34.004 16.2494 33.8418 16.1093 33.7297 15.932C33.6181 15.6714 33.5674 15.3888 33.5814 15.1057V2.16077H29.7255V15.593C29.6998 16.3873 29.8979 17.1729 30.2974 17.8599C30.6867 18.461 31.2585 18.9214 31.9288 19.1735C32.6972 19.4725 33.521 19.6026 34.3441 19.5548C34.7709 19.5364 35.1957 19.4869 35.6152 19.4066L36.4415 19.1947L35.8272 16.3345Z" fill="#2A1468"/>
<path d="M50.2122 7.73304C49.8337 6.9812 49.2449 6.35553 48.5173 5.93218C47.7449 5.51093 46.8757 5.2991 45.9961 5.31775C45.0701 5.28197 44.1548 5.52561 43.369 6.01694C42.6685 6.47588 42.1395 7.1538 41.8648 7.94492H41.6952V0.868652H37.9453V19.3644H41.8013V11.3347C41.7931 10.8067 41.9092 10.2842 42.1402 9.80934C42.3606 9.40175 42.691 9.06407 43.0936 8.83471C43.5172 8.60875 43.9905 8.49222 44.4706 8.49572C44.8083 8.47775 45.1458 8.53279 45.4603 8.6571C45.7747 8.78141 46.0587 8.97206 46.2928 9.21605C46.7598 9.77067 46.995 10.484 46.9495 11.2076V19.3644H50.7843V10.5297C50.819 9.56521 50.6229 8.60639 50.2122 7.73304Z" fill="#2A1468"/>
<path d="M59.83 0.127184C59.2979 0.0385163 58.7593 -0.00400962 58.2199 7.01677e-05C57.4075 -0.0123305 56.6029 0.161592 55.8681 0.508524C55.1958 0.831728 54.6353 1.34811 54.2581 1.9916C53.8319 2.73052 53.626 3.57592 53.6648 4.42803H57.4995C57.5071 4.08206 57.6259 3.74773 57.8384 3.47461C57.994 3.32378 58.1813 3.20945 58.3865 3.13983C58.5917 3.07021 58.8098 3.04704 59.025 3.07207C59.2505 3.05112 59.4774 3.05112 59.7029 3.07207L60.2537 3.19918L60.9317 0.317854L59.83 0.127184ZM53.6648 10.1483V19.3645H57.4995V10.1483H53.6648Z" fill="#2A1468"/>
<path d="M65.4446 5.4873V19.3644H61.5887V9.089H51.7158V5.4873H65.4446Z" fill="#F55D27"/>
<path d="M71.3368 11.3348V19.3645H67.4385V5.48742H71.1037V7.92385H71.252C71.5488 7.13271 72.0908 6.45716 72.7987 5.99588C73.588 5.51277 74.5008 5.26986 75.4258 5.29675C76.3054 5.2781 77.1746 5.48987 77.947 5.91111C78.6637 6.34137 79.2439 6.96574 79.6207 7.71197C80.0386 8.58352 80.2421 9.54242 80.214 10.5086V19.3434H76.3791V11.1866C76.4245 10.463 76.1893 9.74967 75.7223 9.19505C75.4866 8.95328 75.2024 8.76406 74.8884 8.63992C74.5744 8.51577 74.2376 8.4595 73.9003 8.47472C73.4269 8.47113 72.9604 8.58777 72.5444 8.81371C72.1481 9.04439 71.825 9.38217 71.6121 9.78827C71.4103 10.278 71.3165 10.8055 71.3368 11.3348Z" fill="#2A1468"/>
<path d="M87.3959 19.5763C86.384 19.5962 85.3889 19.316 84.5358 18.7712C83.6078 18.1916 82.8709 17.3516 82.4172 16.356C81.4143 13.8246 81.4143 11.0061 82.4172 8.47464C82.8747 7.49254 83.6116 6.66717 84.5358 6.10177C85.3829 5.58118 86.3594 5.30946 87.3537 5.31782C88.0236 5.29861 88.6894 5.42893 89.3028 5.69922C89.777 5.94256 90.201 6.27319 90.5527 6.67378C90.8465 7.02283 91.0957 7.40717 91.2943 7.81787H91.4002V0.868713H95.2562V19.3644H91.4638V17.2458H91.2943C91.0849 17.6552 90.829 18.0392 90.5316 18.3899C90.172 18.7797 89.7403 19.0963 89.2604 19.3221C88.6646 19.5407 88.0285 19.6275 87.3959 19.5763ZM88.6248 16.5255C89.1906 16.5433 89.7449 16.3635 90.1926 16.017C90.648 15.6351 90.9921 15.1374 91.1884 14.5763C91.4256 13.8957 91.5404 13.1784 91.5273 12.4577C91.5431 11.7368 91.4283 11.019 91.1884 10.3391C91.0051 9.78322 90.6579 9.29579 90.1926 8.94075C89.7449 8.59427 89.1906 8.41444 88.6248 8.43223C88.0461 8.41502 87.4785 8.59428 87.0146 8.94075C86.5638 9.32249 86.2267 9.82088 86.0401 10.3814C85.7965 11.0604 85.6814 11.7789 85.7011 12.5001C85.6871 13.2208 85.802 13.9383 86.0401 14.6187C86.2285 15.1838 86.5738 15.6835 87.0358 16.0594C87.4914 16.4022 88.0561 16.5679 88.6248 16.5255Z" fill="#2A1468"/>
<path d="M103.752 19.6185C102.468 19.663 101.195 19.363 100.066 18.7498C99.0494 18.183 98.2237 17.3279 97.6929 16.2923C97.1185 15.1047 96.8353 13.7974 96.8666 12.4787C96.8397 11.1807 97.123 9.89513 97.6929 8.7287C98.2201 7.68108 99.0361 6.80623 100.045 6.2075C101.121 5.59419 102.344 5.28648 103.583 5.31764C104.455 5.31164 105.322 5.45498 106.146 5.7414C106.938 6.02308 107.661 6.47095 108.265 7.05495C108.873 7.65613 109.35 8.37774 109.663 9.17359C110.003 10.1688 110.168 11.2153 110.15 12.2668V13.3261H98.4344V10.9321H106.528C106.545 10.4209 106.42 9.91503 106.167 9.47023C105.933 9.04802 105.589 8.69672 105.172 8.45326C104.716 8.20773 104.206 8.08365 103.689 8.09306C103.146 8.07988 102.61 8.21935 102.142 8.49561C101.71 8.76174 101.353 9.13362 101.104 9.57614C100.853 10.0311 100.715 10.5397 100.701 11.0592V13.3261C100.683 13.9414 100.814 14.5521 101.083 15.1058C101.328 15.5935 101.711 15.9985 102.184 16.2711C102.695 16.5546 103.274 16.6938 103.858 16.6736C104.255 16.6774 104.649 16.6129 105.023 16.4829C105.364 16.379 105.676 16.1977 105.934 15.9533C106.197 15.7098 106.394 15.4036 106.506 15.0634L110.066 15.2965C109.905 16.1298 109.525 16.9051 108.964 17.5423C108.383 18.1947 107.657 18.7025 106.845 19.0253C105.86 19.4146 104.811 19.6158 103.752 19.6185Z" fill="#2A1468"/>
<path d="M111.61 19.3644V5.48728H115.339V7.92371H115.466C115.667 7.15316 116.113 6.46892 116.738 5.97453C117.351 5.52569 118.097 5.29454 118.856 5.31775H119.471L120.064 5.42373V8.83471L119.301 8.68639H118.432C117.906 8.67355 117.385 8.80551 116.928 9.0678C116.484 9.29724 116.116 9.65044 115.869 10.0847C115.609 10.5352 115.477 11.048 115.488 11.5678V19.4279L111.61 19.3644Z" fill="#2A1468"/>
</g>
<defs>
<clipPath id="clip0_2430_13169">
<rect width="120" height="24.5551" fill="white"/>
</clipPath>
</defs>
</svg>
